REM MD5 8693858ca5011a076365e2da5e11bcd5
FILE "Lord Monarch - Shin Gaia Oukokuki (Japan) (Major Wave).bin" BINARY
  TRACK 01 MODE2/2352
    INDEX 01 00:00:00
  TRACK 02 AUDIO
    INDEX 00 31:37:16
    INDEX 01 31:39:16
  TRACK 03 AUDIO
    INDEX 00 33:56:18
    INDEX 01 33:58:18
  TRACK 04 AUDIO
    INDEX 00 36:59:00
    INDEX 01 37:01:00
REM LEADOUT 38:06:27
